# xmcd CD database file
#
# Track frame offsets:
#	150
#	37125
#	65770
#	82162
#	100335
#	148527
#
# Disc length: 2323 seconds
#
# Revision: 2
# Processed by: cddbd v1.4PL0 Copyright (c) Steve Scherf et al.
# Submitted via: Feurio! 1.65 - http://www.feurio.com
#
DISCID=58091106
DTITLE=Taste - Live
DYEAR=1900
DGENRE=Blues
TTITLE0=Sugar Mama
TTITLE1=Gamblin' Blues
TTITLE2=I Feel So Good (Part 1)
TTITLE3=I Feel So Good (Part 2)
TTITLE4=Catfish
TTITLE5=Same Old Story
EXTD=
EXTT0=
EXTT1=
EXTT2=
EXTT3=
EXTT4=
EXTT5=
PLAYORDER=
